<?xml version="1.0" encoding="utf-8"?>
<!-- Generator: Adobe Illustrator 16.0.0, SVG Export Plug-In . SVG Version: 6.00 Build 0)  -->
<!DOCTYPE svg PUBLIC "-//W3C//DTD SVG 1.1//EN" "http://www.w3.org/Graphics/SVG/1.1/DTD/svg11.dtd">
<svg version="1.1" id="Layer_1" xmlns="http://www.w3.org/2000/svg" xmlns:xlink="http://www.w3.org/1999/xlink" x="0px" y="0px"
	 width="720px" height="720px" viewBox="0 0 720 720" enable-background="new 0 0 720 720" xml:space="preserve">
<g>
	<path fill-rule="evenodd" clip-rule="evenodd" fill="#ED1C24" d="M649.223,371.355c14.853,3.563-14.829,13.795-14.829,13.795
		c-6.655,1.682,1.587,8.305-5.033,9.826c-8.408,1.928-11.671,7.139-10.929,15.648c0.293,3.35,1.168,7.072,0.998,10.41
		c-0.269,5.199-5.649,7.938-4.344,13.688c0.52,2.285,2.1,4.281,1.599,6.713c-0.552,2.686-2.392,3.693-0.954,6.502
		c1.402,2.752,4.121,5.049,6.516,6.916c1.775,1.389,1.807,1.43,1.424,3.893c-0.662,4.25-2.205,10.67-6.363,12.906
		c-2,1.082-4.814-0.244-6.885-0.484c-1.984-0.23-3.955-0.357-5.898,0.213c-4,1.166-5.756,4.605-7.051,8.305
		c-2.57,7.322-4.451,13.057-0.805,20.449c1.309,2.66,4.512,5.121,6.387,7.52c2.887,3.697,1.111,4.838-0.104,8.986
		c-1.557,5.318-7.113,5.473-11.765,6.539c-1.384,0.32-4.168,0.412-4.438,2.154c-0.641,4.133,10.162,8.412,6.193,12.994
		c-1.313,1.512-4.287,1.607-5.909,3.115c-4.471,4.182-7.868,5.281-14.007,5.107c-3.01-0.086-5.463-1.785-8.18-2.867
		c-2.918-1.172-5.85-1.264-8.922-0.596c-9.706,2.098-18.4,7.662-24.43,15.549c-4.85,6.348-9.734,12.219-3.955,19.613
		c2.771,3.543,4.125,8.262,2.572,12.637c-3.368,9.49-16.457,2.209-20.924-1.91c-4.113-3.799-8.758-9.197-14.973-6.713
		c-9.867,3.949-9.047,17.691-19.767,21.01c-4.075,1.264-9.06,1.602-11.845,5.244c-5.551,7.275-2.272,18.664-0.029,26.486
		c1.387,4.824,2.965,9.539,4.689,14.256c0.816,2.242,2.916,9.881-0.715,11.363c-4.359,1.787-6.844-3.965-7.418-6.369
		c-2.02-8.469-6.018-13.996-7.799-19.887c-2.785-9.205-5.944-20.779-15.067-25.629c-7.847-4.164-11.705,2.945-17.368,7.25
		c-1.547,1.18-3.432,1.77-4.994,2.932c-1.783,1.326-3.242,3.113-4.883,4.609c-3.084,2.824-6.521,6.715-10.317,8.561
		c-2.091,1.018-4.023,0.678-6.263,0.682c-2.447,0.008-3.441,0.76-5.395,2.02c-1.945,1.262-3.039,0.928-5.264,1.041
		c-4.813,0.227-9.197,3.666-13.75,5.021c-4.887,1.455-9.934,2.469-15.041,2.666c-5.77,0.227-11.955-0.48-17.186-3.064
		c-4.367-2.15-7.949-5.689-12.061-8.281c-6.289-3.959-13.561-8.428-18.938-13.58c-2.797-2.676-4.248-6.334-7.207-8.945
		c-2.059-1.822-4.07-3.633-5.74-5.832c-1.549-2.033-2.617-4.508-4.383-6.365c-3.424-3.604-9.088-3.496-13.505-2.006
		c-5.208,1.754-9.626,5.523-13.299,9.508c-6.048,6.561-8.589,15.275-11.359,23.541c-2.985,8.896-6.384,17.734-10.856,26.002
		c-3.23,5.984-6.673,11.939-10.771,17.383c-2.711,3.602-4.461,5.18-9.201,6.137c-6.865,1.391-6.836-5.668-6.193-10.295
		c1.01-7.275,1.907-10.057,5.762-16.268c3.035-4.893,6.617-9.371,9.781-14.164c2.626-3.984,5.432-8.266,6.714-12.902
		c0.577-2.096,0.774-4.293,1.517-6.35c0.797-2.182,2.098-2.832,3.469-4.48c1.395-1.672,1.449-3.779,1.99-5.809
		c1.242-4.658,3.287-9.164,4.887-13.715c3.305-9.402-7.688-12.756-14.707-13.881c-5.727-0.918-10.404-3.111-15.844-4.934
		c-3.227-1.084-7.053-1.779-10.469-1.627c-4.643,0.205-4.438,4.059-7.514,6.309c-1.766,1.295-3.844,2.1-5.941,2.67
		c-4.195,1.139-8.567,1.275-12.886,1.516c-0.211,0.01-3.237,4.334-3.815,4.869c-1.264,1.164-2.592,2.242-3.846,3.414
		c-2.432,2.277-5.502,5.533-9.201,4.494c-7.696-2.174,4.979-11.613,7.132-13.51c2.651-2.332,5.406-4.58,7.778-7.197
		c2.285-2.529,3.738-6.307,6.432-8.369c2.625-2.014,5.853-1.873,7.619-5.08c2.342-4.266,1.893-10.768-2.055-13.836
		c-3.521-2.732-8.416-2.535-12.631-2.705c-3.565-0.15-4.809-2.168-7.449-4.156c-3.935-2.965-6.757-4.9-8.792-9.582
		c-1.71-3.928-3.168-8.475-7.276-10.543c-3.199-1.605-5.207-4.586-9.061-4.688c-4.812-0.133-9.615,2.395-14.303,3.182
		c-10.126,1.695-9.045-5.842-13.547-12.27c-1.398-1.992-4.508-1.43-5.297-1.203c-1.334,0.369-3.533,3.166-4.59,4.004
		c-6.316,4.998-10.787,3.117-16.389,8.332c-2.148,2-6.212,1.98-9.042,2.08c-5.808,0.203-3.958-5.828-2.354-6.586
		c3.456-1.635,5.028-3.668,8.229-5.01c3.854-1.625,7.857-2.873,11.691-4.547c3.736-1.635,7.16-3.887,10.898-5.514
		c3.688-1.607,7.264-1.789,11.223-1.906c12.309-0.371,10.76-16.197,6.118-23.637c-2.212-3.543-4.983-6.83-8.237-9.461
		c-7.774-6.285-15.813-12.49-22.39-20.076c-5.964-6.881-7.974-14.973-6.142-23.961c1.847-9.053,5.356-17.67,7.688-26.598
		c1.549-5.924,2.773-13.67-2.291-18.32c-4.184-3.836-11.021-3.734-16.334-4.332c-3.025-0.34-11.03-0.799-6.762-6.064
		c0.949-1.174,2.899-1.305,3.994-2.357c0.784-0.756,1.238-1.896,1.762-2.84c1.078-1.955,2.059-4.854,4.016-6.09
		c2.304-1.445,5.508-1.416,7.949-2.836c1.279-0.75,2.355-1.557,3.062-2.885c3.125-5.877,4.198-14.537,4.401-21.125
		c0.251-7.926-3.038-14.782-10.301-18.254c-6.313-3.015-13.865-3.471-19.521-7.902c-3.055-2.396-2.961-5.156-2.933-8.707
		c0.029-3.633-1.109-5.993-4.178-8.05c-1.063-0.708-1.612-2.189-1.476-3.712c0.025-0.292,0.082-1.205,0.371-1.361
		c1.178-0.649,2.043-0.651,3.084-0.508c3.92,0.54,8.406,1.82,9.828,5.937c1.242,3.59,0.259,7.426,2.259,10.865
		c2.534,4.353,8.104,6.85,12.906,7.594c7.345,1.14,4.817-7.101,3.483-11.204c-1.277-3.939-2.607-8.274-0.76-12.264
		c1.473-3.184,5.094-6.479,8.672-6.929c2.561-0.318,5.273,0.168,7.775-0.754c2.161-0.799,3.609-2.801,5.205-4.406
		c3.134-3.158,5.741-6.458,7.965-10.311c3.836-6.633,6.895-14.675,0.859-21.023c-5.504-5.793-13.123-11.146-16.874-18.304
		c-2.505-4.778-5.992-9.675-7.544-14.876c3.086-1.736,6.55,1.769,8.848,3.38c5.583,3.923,12.531,2.97,18.84,4.62
		c2.305,0.604,3.998,1.665,5.113,3.756c0.469,0.887-0.646,1.585,1.6,3.833c2.244,2.249,6.737,3.235,9.847,4.524
		c3.112,1.288,3.671,1.222,5.696,0.731c4.393-1.062,6.695-6.563,11.697-8.26c2.03-0.69,3.225-9.926,3.543-12.043
		c0.502-3.387-0.015-6.634-0.213-10.015c-0.283-4.91,2.475-14.396,7.662-16.06c3.43-1.101,7.195,0.267,10.683-0.46
		c5.675-1.176,4.606-4.215,3.331-8.725c-0.659-2.34-0.655-4.954-0.515-7.359c-0.044,0.729,3.28,1.838,3.824,1.612
		c1.554-0.649,0.707-1.669,0.677-3.05c-0.064-2.979-1.61-6.313-2.547-9.107c-1.02-3.054-8.122-22.32,0.068-18.177
		c5.965,3.02,9.771,8.899,15.86,11.958c7.792,3.918,17.265,14.556,25.01,5.246c2.847-3.41,5.423-8.261,5.323-12.826
		c-0.095-4.423-3.323-7.579-4.721-11.571c-1.574-4.494-2.689-11.514-1.104-16.102c1.223-3.515,9.263,0.057,11.236,1.101
		c4.861,2.558,7.801,7.018,8.79,12.364c1.184,6.402,7.103,13.649,14.355,12.255c5.954-1.141,7.323-8.611,10.944-12.532
		c4.207-4.557,10.184-5.684,16.035-3.984c4.085,1.186,6.688,1.906,10.057,4.467c3.147,2.395,8.882,4.108,11.592,0.227
		c2.402-3.443,0.652-7.629-0.247-11.238c-1.224-4.893-0.86-10.418-0.036-15.322c1.772-10.558,10.342-9.249,17.168-3.518
		c8.855,7.435,5.455,22.198,14.406,28.718c4.004,2.917,10.198,2.567,14.51,0.502c5.957-2.851,11.068-11.353,18.373-10.827
		c5.966,0.434,7.689,8.007,12.861,10.107c3.035,1.234,7.236,0.287,10.516,1.008c3.139,0.695,6.551,3.592,9.875,3.156
		c3.192-0.42,4.75-4.037,6.446-6.328c2.71-3.645,5.332-7.432,9.86-7.721c6.05-0.387,16.854,2.17,23.828,26.03"/>
	<path fill-rule="evenodd" clip-rule="evenodd" fill="#ED1C24" d="M649.223,371.355c-5.91,0.693-11.885,0.324-17.743-0.643
		c-4.616-0.766-9.591-1.531-12.571-5.553c-2.273-3.061-2.125-7.373-2.293-11.002c-0.254-5.309-0.487-10.621-0.668-15.932
		c-0.152-4.639-0.162-9.162-1.05-13.733c-0.894-4.608-1.267-7.997,0.086-12.512c1.249-4.165-1-7.832-1.513-12.047
		c-0.357-2.946,0.057-6.163-1.123-8.958c-1.521-3.605-4.889-5.466-5.91-9.579c-0.961-3.868-1-7.742-1.428-11.678
		c-0.856-7.871-3.293-14.605-10.461-18.684c-5.83-3.313-13.904-4.81-17.515-11.043c-2.454-4.229-1.601-10.64,0.394-14.782
		c0,0,7.621-15.708,1.521-20.45c-5.541-4.305-9.426,0.129-14.495-0.19c-5.616-0.358-13.112,3.378-18.012-1.104
		c-3.339-3.053-3.194-8.87-3.701-12.989c-0.702-5.65-5.357-10.128-10.333-12.36c-5.68-2.548-12.207-1.679-18.211-2.896
		c-10.749-2.182-11.686-11.768-14.748-20.758c-2.031-5.959-2.323-12.986-5.543-18.472c-4.405-7.496-13.764-4.755-20.762-3.688
		c-8.074,1.229-14.123,9.222-22.548,6.843c-3.657-1.029-8.948-2.752-11.935-5.167"/>
	<g>
		<g>
			<path fill="#ED1C24" d="M202.904,435.49c-1.971,0-3.888-0.113-5.695-0.352c-33.963-4.561-57.729-39.711-61.366-70.965
				c-3.366,5.965-5.437,12.377-7.622,19.131c-1.854,5.756-3.768,11.705-6.568,17.295c-1.42,2.842-3.467,3.27-4.563,3.27
				c-1.262,0-3.096-0.533-4.588-3.08c-1.425-2.129-2.289-4.619-2.701-7.918c-1.279-12.641-0.129-22.469,3.85-32.195
				c-0.68-0.219-1.366-0.418-2.061-0.588l-0.236-0.063c-2.066-0.697-4.996-1.984-6.611-5.234l-0.868-1.736l1.114-1.586
				c1.924-2.746,4.973-3.254,7.191-3.631c1.402-0.17,2.691-0.35,3.99-0.527c1.461-0.211,2.962-0.428,4.442-0.586l0.093-0.164
				c0.535-0.852,1.18-1.936,1.929-3.18c7.464-12.422,21.376-35.568,36.118-35.568c2.034,0,4.016,0.465,5.885,1.344
				c3.416,1.643,7.131,4.707,7.371,8.383c0.115,2.01-0.828,3.805-2.594,4.955c-1.361,0.835-2.772,1.453-4.139,2.038
				c-1.826,0.806-3.736,1.632-4.703,2.667c-3.168,3.164-5.692,7.203-8.136,11.111c-0.142,0.238-0.294,0.469-0.433,0.701
				c17.115-6.998,43.047-26.324,44.401-34.531c0.103-0.582,0.103-0.725-0.548-1.05c-3.641-1.876-8.379-2.824-14.092-2.824
				c-4.948,0-10.518,0.722-16.115,2.109c-10.393,2.347-29.949,11.695-34.553,18.813l-3.111,4.814l-2.554-5.134
				c-2.306-4.666-2.368-9.541-0.182-14.063c6.358-13.096,30.147-20.703,38.784-22.523c6.23-1.372,11.672-2.034,16.617-2.034
				c7.537,0,14.266,1.556,20.583,4.756c5.249,2.323,9.437,6.75,11.609,12.426c2.044,5.347,1.983,11.157-0.174,15.954
				c-8.866,19.646-29.115,35.645-55.588,43.918c-0.106,0.049-0.218,0.094-0.323,0.139c0.679,14.027,10.359,33.412,19.059,42.107
				c9.354,9.254,23.248,14.795,37.153,14.795c5.94,0,11.501-1,16.567-2.969l0.572-0.23h0.618c1.438,0,2.958,0.951,3.335,2.727
				c0.365,1.02,0.412,2.088,0.121,3.074C231.25,430.422,215.924,435.49,202.904,435.49z"/>
			<path fill="#ED1C24" d="M112.705,351.061c2.771-0.338,5.715-0.814,8.641-1.145c1.147,0,1.794-0.328,2.121-1.631
				c5.707-9.117,24.289-43.52,39.773-36.188c4.4,2.125,7.174,5.87,4.4,7.655c-2.93,1.805-7.17,2.776-9.453,5.219
				c-5.702,5.709-9.293,13.857-14.021,19.729c18.099-2.447,66.835-37.322,53.14-44.178c-8.801-4.557-21.84-3.592-32.432-0.977
				c-10.104,2.28-31.139,11.895-36.518,20.207c-8.799-17.764,24.778-29.497,36.354-31.945c13.364-2.94,24.447-2.94,35.047,2.448
				c9.607,4.237,13.689,15.813,9.945,24.125c-9.789,21.679-32.283,35.536-53.794,42.228c-0.651,0.318-1.476,0.477-2.122,0.805
				c-0.323,0-0.323,0.654-0.323,0.986c0,14.5,10.108,35.855,20.048,45.793c14.678,14.512,38.793,19.73,57.218,12.557
				c0.155,0,0.155,0.16,0.155,0.328c0.168,0.322,0.33,0.805,0.168,1.305c-2.773,10.76-21.025,15.156-33.414,13.529
				c-32.764-4.408-56.565-39.283-58.847-71.234c-1.626,0-2.935,0-3.747,0c-0.654,0-1.309,0.33-1.309,0.652
				c-7.172,11.893-8.965,25.754-14.996,37.811c-0.975,1.971-2.275,1.971-3.423,0c-1.299-1.961-1.949-4.068-2.284-6.674
				c-1.301-12.879,0-23.146,5.057-33.748c-1.961-0.65-3.748-1.305-5.697-1.791c-1.966-0.652-3.758-1.637-4.738-3.592
				C108.789,351.707,110.758,351.385,112.705,351.061z"/>
			<path fill="#ED1C24" d="M209.875,410.281c-11.463,0-18.595-6.955-18.595-18.15c-0.486-12.264,3.974-25.32,11.349-33.131
				c4.981-5.289,11.18-8.152,17.93-8.277h0.373l0.369,0.08c6.506,1.393,10.146,6.977,8.875,13.59
				c-0.851,4.926-2.327,8.891-7.03,13.191c-0.595,0.508-1.192,0.98-1.847,1.537c-7.973,6.531-12.093,10.752-12.252,12.547v0.213
				l-0.026,0.189c-0.214,1.596,0.017,2.338,0.186,2.537c0.093,0.107,0.483,0.295,1.35,0.295c2.724,0,7.042-1.764,9.974-3.414
				c4.285-2.936,11.1-9.367,15.618-13.639c1.117-1.057,2.124-1.994,2.96-2.771c0.346-0.354,0.74-0.787,1.125-1.189
				c1.244-1.354,2.549-2.756,4.523-3.734l0.285-0.152l0.316-0.082c0.869-0.23,1.6-0.398,2.348-0.398
				c1.453,0,2.711,0.646,3.447,1.775c1.322,2.035,0.27,4.371-0.166,5.361c-1.83,4.031-4.797,7.512-7.662,10.893
				c-6.328,7.273-18.043,20.73-31.201,22.646l-0.254,0.018C211.191,410.268,210.535,410.281,209.875,410.281z"/>
			<path fill="#ED1C24" d="M220.617,353.996c4.568,0.975,7.34,4.721,6.355,9.775c-0.808,4.73-2.122,7.824-6.031,11.406
				c-4.072,3.422-15.157,11.904-15.157,16.469c-1.469,11.084,11.907,5.219,16.466,2.607c5.539-3.756,14.672-12.715,19.071-16.789
				c1.798-1.797,2.939-3.428,4.887-4.402c1.8-0.492,3.105-0.65,1.8,2.279c-1.626,3.592-4.397,6.848-7.178,10.113
				c-7.654,8.799-17.924,19.881-29.178,21.508c-9.943,0.652-17.109-4.068-17.109-14.832
				C193.882,375.51,203.017,354.314,220.617,353.996z M210.027,373.385c4.721-3.416,8.797-6.68,10.59-11.896
				C214.748,363.602,211.497,366.705,210.027,373.385z"/>
			<path fill="#ED1C24" d="M281.412,417.391c-2.105,0-4.036-0.443-5.745-1.34c-8.335-4.162-9.288-15.613-8.635-25.428
				c-5.347,6.197-12.056,12.59-19.917,12.59c-1.615,0-3.225-0.285-4.781-0.836l-0.311-0.119l-0.281-0.17
				c-3.381-2.063-7.273-5.178-7.273-10.934c0-17.271,13.561-36.596,31.695-36.596c0.723,0,1.438,0.029,2.166,0.1
				c1.906,0.258,4.07,0.676,6.052,1.732c12.791-26.844,24.96-50.9,41.798-72.384c2.926-3.328,5.525-4.871,8.076-4.871
				c1.783,0,3.391,0.757,4.67,2.195c3.863,4.357,3.588,14.435,3.165,17.962l-0.028,0.199l-0.047,0.188
				c-6.762,27.229-22.717,53.921-39.854,81.147l-0.152,0.229c-0.657,0.869-1.025,1.996-1.441,3.373
				c-1.132,4.367-1.553,12.523-0.465,14.465c0.068,0.006,0.156,0.006,0.274,0.006c4.614,0,17.174-8.492,25.351-17.152l0.133-0.148
				l0.146-0.115c0.682-0.57,1.55-0.875,2.447-0.875c2.068,0,4.115,1.615,4.965,3.949c0.934,2.582,0.158,5.242-2.088,7.133
				c-0.908,0.807-1.992,1.785-3.156,2.836C308.108,403.629,292.887,417.391,281.412,417.391L281.412,417.391z"/>
			<path fill="#ED1C24" d="M275.883,360.836c13.688-28.848,25.746-52.977,42.867-74.814c9.781-11.087,10.919,6.188,10.103,12.873
				c-6.681,26.896-22.822,53.789-39.448,80.193c-0.977,1.307-1.461,2.775-1.949,4.412c-0.982,3.744-2.605,16.293,0.973,18.246
				c5.373,2.775,21.354-8.965,29.668-17.76c0.98-0.82,4.244,2.611,1.145,5.213c-9.953,8.801-31.141,29.666-42.059,23.967
				c-10.105-5.055-6.684-25.756-5.541-33.746c-0.33,0.488-0.65,1.297-1.143,1.961c-6.031,7.002-16.137,21.836-27.067,17.922
				c-2.927-1.785-5.7-4.074-5.7-8.148c0-16.137,13.375-34.717,30.327-33.254c2.44,0.328,5.053,0.971,6.841,2.936
				c0.334,0.322,0.334,0.322,0.657,0.652C275.556,361.158,275.883,360.836,275.883,360.836z M250.286,386.598
				c7.339-5.881,14.837-11.744,22.824-17.279c-8.965-4.566-23.147,8.795-23.147,16.787
				C249.963,386.105,249.963,386.105,250.286,386.598z"/>
			<path fill="#ED1C24" d="M318.873,431c-3.686,0-6.614-1.135-8.949-3.473c-7.34-7.328-2.525-26.563,1-37.377
				c2.914-9.566,5.628-19.191,8.262-28.498l1.313-4.646c1.751-5.172,3.284-10.631,4.764-15.904c0.899-3.203,1.757-6.281,2.634-9.162
				c-1.488-0.051-3.033-0.064-4.609-0.078c-6.319-0.078-12.857-0.162-18.495-1.803c-4.812-1.384-7.819-4.999-7.289-8.82
				c0.412-2.864,3.095-6.207,9.341-6.207c1.129,0.031,2.833,0.135,4.918,0.264c4.739,0.284,11.244,0.672,16.155,0.672
				c2.396,0,3.764-0.1,4.507-0.193c0.697-1.936,1.433-4.029,2.166-6.135c2.111-6.063,4.307-12.336,5.966-15.996
				c0.952-1.995,2.856-3.1,5.271-3.1c3.859,0,8.484,2.757,10.861,5.348c2.104,2.287,2.418,4.287,2.303,5.557
				c-0.43,3.811-1.656,7.137-2.973,10.654c-0.412,1.1-0.822,2.213-1.221,3.357l5.347-0.06c8.636-0.119,15.448-0.204,22.337-0.204
				c7.414,0,11.621,0.174,12.102,3.801c0.48,3.547-3.582,4.656-6.851,5.536c-11.382,3.716-23.21,6.044-38.033,7.472
				c-0.027,0.051-0.055,0.09-0.074,0.135c-12.6,34.652-26.321,79.053-25.493,85.436l0.021,0.029l0.104,0.309
				c1.831-0.557,9.461-4.85,32.066-37.223l0.831-1.195c1.342-2.094,2.937-3.814,5.247-5.59c0.749-0.607,2.868-2.17,4.969-2.17
				c1.418,0,2.69,0.697,3.393,1.859c1.287,2.131,0.264,4.707-1.043,7.18c-0.135,0.303-21.176,43.924-43.219,49.092
				C324.186,430.422,321.455,431,318.873,431z"/>
			<path fill="#ED1C24" d="M359.826,381.381c1.133-1.795,2.437-3.268,4.559-4.891c1.796-1.473,5.717-3.428,2.447,2.768
				c-3.748,7.986-22.983,43.191-41.072,47.434c-5.385,1.303-10.111,1.949-13.531-1.469c-6.359-6.357-0.497-27.055,1.789-34.068
				c3.426-11.246,6.523-22.334,9.625-33.254c3.263-9.615,5.871-20.705,8.639-29.016c-8.483-0.646-18.752,0.33-26.574-1.949
				c-6.846-1.965-6.846-8.65,1.137-8.65c4.732,0.179,24.615,1.801,27.713,0.332c0.33-0.153,0.494-0.332,0.494-0.49
				c2.773-7.656,6.193-18.094,8.471-23.146c1.8-3.747,12.557,2.287,12.223,6.191c-0.651,5.706-3.582,10.762-5.373,17.605
				c13.695-0.16,22.818-0.313,32.109-0.313c6.025,0,14.027,0.313,4.404,2.924c-13.536,4.403-26.41,6.358-38.798,7.497
				c-0.976,0.164-0.489,0.164-1.142,1.313c0,0.16-0.327,0.482-0.327,0.643c-10.431,28.688-28.366,83.631-25.427,88.188
				C325.424,431.582,355.922,386.912,359.826,381.381z"/>
			<path fill="#ED1C24" d="M369.928,410.391c-3.641,0-7.004-1.113-9.73-3.229c-8.355-5.664-6.931-22.996-4.987-30.08
				c0.464-2.08,1.321-3.355,2.897-4.152c0.051-0.203,0.096-0.408,0.157-0.617c0.526-2.09,1.113-4.467,2.37-6.496
				c3.004-5.234,9.604-14.318,19.539-15.387c0.936-0.176,2.062-0.27,3.144-0.27c4.726,0,8.735,1.883,11.579,5.453
				c4.17,4.518,4.774,10.438,4.543,14.633c0.189-0.059,0.375-0.123,0.57-0.188c1.113-0.363,2.2-0.727,3.198-0.975
				c1.289-0.34,2.707-0.816,4.118-1.283c1.873-0.633,3.803-1.273,5.583-1.674l0.347-0.072h0.354c2.75,0,4.104,1.592,4.449,3.074
				c1.139,4.811-8.271,10.057-8.363,10.111c-2.756,1.295-5.346,2.08-7.854,2.852c-2.213,0.682-4.336,1.324-6.242,2.238
				C385.693,401.854,377.291,410.391,369.928,410.391z"/>
			<path fill="#ED1C24" d="M403.992,372.246c3.097-0.82,6.688-2.277,9.617-2.928c4.244,0-3.096,5.859-5.373,7.004
				c-5.219,2.441-10.441,3.098-14.996,5.541c-3.914,7.01-14.504,25.27-23.313,25.27c-2.776,0-5.548-0.82-7.824-2.611
				c-6.688-4.398-5.54-20.049-3.75-26.574c0.654-2.93,1.631-1.625,2.605-3.094c0.655-2.283,1.145-5.213,2.458-7.328
				c3.734-6.52,9.607-13.041,17.108-13.863c4.721-0.814,8.963,0.334,11.896,4.074c5.217,5.547,3.75,14.342,3.096,16.799
				C398.123,374.365,401.387,372.898,403.992,372.246z"/>
			<path fill="#ED1C24" d="M472.035,413.395c-6.596,0-14.111-4.404-15.037-12.58c-1.146-8.75,2.836-18.902,7.099-27.688
				c-5.384,4.682-12.268,11.303-16.774,15.631l-3.422,3.283c-2.537,2.363-4.467,3.35-6.486,3.35c-1.518,0-2.885-0.68-3.869-1.918
				c-1.801-2.273-2.123-6.816-1.908-11.223c-6.273,7.699-11.986,15.48-17.192,22.574l-0.188,0.268l-0.25,0.215
				c-1.359,1.238-2.825,1.855-4.332,1.855c-3.975,0-6.301-4.193-6.795-8.107c-0.539-4.295,0.297-10.398,0.729-12.109
				c1.92-7.371,5.68-19.867,8.23-27.324c1.022-2.904,3.462-4.684,6.372-4.684c2.304,0,4.531,1.121,6.114,3.063
				c2.041,2.518,2.73,6.02,1.934,9.85c-0.01,0.08-0.026,0.154-0.041,0.229c3.361-4.029,6.637-8.107,9.788-12.047l0.29-0.357
				l0.371-0.275c1.439-1.004,3.066-1.537,4.736-1.537c3.502,0,6.57,2.295,8.009,5.949c0.686,1.643,1.056,3.299,1.215,4.926
				c5.938-5.029,12.604-9.313,18.313-11.641c1.516-0.607,3.002-0.891,4.459-0.891c3.068,0,5.914,1.279,8.207,3.695
				c3.357,3.541,5.174,9.164,4.875,15.047l-0.041,0.639l-0.268,0.582c-0.646,1.357-1.287,2.705-1.935,4.039
				c-3.542,7.387-6.696,13.953-7.604,20.539c3.052-2.25,7.6-6.293,10.66-9.02c2.629-2.348,5.117-4.576,7.246-6.283
				c7.133-5.703,9.104-6.182,10.526-6.182c1.467,0,2.755,0.795,3.347,2.094c1.076,2.303-0.117,4.797-5.098,10.691
				c-5.594,6.777-14.172,16.594-23.971,23.244C477.313,412.67,474.791,413.395,472.035,413.395z"/>
			<path fill="#ED1C24" d="M411.818,402.895c-3.43,3.094-5.376-1.631-5.709-4.244c-0.49-3.91,0.333-9.615,0.656-10.918
				c1.961-7.502,5.715-19.887,8.147-27.057c1.802-5.059,9.95-2.123,8.157,6.518c-0.818,4.232-2.12,8.801-2.932,12.873
				c6.35-7.004,12.546-14.664,18.419-22c2.768-1.955,6.357-0.813,7.819,2.939c1.627,3.904,1.145,8.143,0.328,11.893
				c6.193-6.521,15.484-13.529,23.475-16.787c7.83-3.096,13.53,5.377,13.049,14.664c-5.064,10.764-10.437,20.379-10.119,30.646
				c2.941,1.961,15.973-11.4,23.48-17.436c10.584-8.477,11.406-6.521,4.232,1.951c-6.845,8.316-14.666,16.793-23.312,22.652
				c-5.539,3.762-16.295,0.498-17.274-8.143c-1.473-11.248,6.688-25.752,11.735-35.537c-1.3-3.582-19.073,14.023-30.319,24.775
				c-2.279,2.121-3.422,2.445-4.238,2.445c-4.406,0-1.957-16.953-1.145-20.369C427.303,381.863,419.478,392.465,411.818,402.895z"/>
			<path fill="#ED1C24" d="M530.866,410.59c-5.531,0-10.382-3.342-12.933-8.525c-3.395,2.406-7.699,4.795-12.699,4.795
				c-0.971,0-1.951-0.096-2.899-0.285c-3.592-0.432-6.378-2.799-8.383-4.795c-3.333-3.342-3.005-9.92-2.905-11.207l0.025-0.193
				l0.035-0.189c1.303-6.512,3.462-13.246,6.104-18.982c6.077-12.795,14.652-20.629,24.796-22.697
				c1.133-0.309,2.537-0.494,3.965-0.494c4.825,0,9.457,2.09,12.093,5.469c2.063,2.639,2.751,5.885,1.938,9.117
				c-0.342,1.309-1.477,4.867-3.875,6.244c0.847,0.676,1.598,1.502,2.2,2.451c1.78,2.82,2.028,6.25,0.65,9.188
				c-0.433,1.004-1.089,2.338-1.78,3.746c-1.334,2.666-2.973,5.979-3.343,7.988c-0.128,1.199-0.095,1.92-0.034,2.309
				c0.432-0.049,1.064-0.189,2.03-0.557c4.392-1.93,10.599-9.139,15.587-14.93c3.051-3.545,5.701-6.625,7.82-8.395
				c1.538-1.512,2.926-2.215,4.354-2.215c0.521,0,1.019,0.1,1.487,0.289c2.022,0.742,3.034,2.477,3.034,5.162v0.639l-0.234,0.576
				c-4.103,10.082-13.639,27.967-31.412,34.443C534.598,410.232,532.707,410.59,530.866,410.59z M528.211,362.955
				c-4.771,0-16.131,16.447-19.818,25.424c2.713-2.875,6.92-7.879,13.422-16.365c1.969-2.58,2.138-2.781,2.564-3.129
				c1.748-1.393,3.756-2.137,5.813-2.162c-0.029-0.057-0.051-0.115-0.086-0.176c-0.128-0.299-0.264-0.711-0.402-1.209
				C529.062,363.115,528.688,362.955,528.211,362.955z"/>
			<path fill="#ED1C24" d="M502.939,403.383c-2.606-0.324-4.726-1.961-6.686-3.91c-1.953-1.955-2.117-6.521-1.953-8.645
				c1.139-5.701,3.1-12.229,5.869-18.258c4.727-9.943,12.059-18.738,22.498-20.863c7.169-1.959,15.969,2.945,14.174,10.104
				c-0.652,2.447-2.607,6.035-3.747,3.424c-0.497-1.135-0.979-5.533-4.884-5.533c-8.322,0-22.34,23.951-23.973,30.797
				c-4.068,16.963,21.36-18.42,22.177-19.072c5.536-4.396,12.222,2.125,9.619,7.662c-1.471,3.426-4.729,8.969-5.376,12.559
				c-0.662,5.701,1.135,7.338,6.352,5.379c8.149-3.592,19.066-19.561,24.451-23.963c0.65-0.65,1.789-1.637,2.445-1.301
				c0.975,0.316,0.975,1.301,0.975,2.121c-5.699,14.012-15.648,27.539-29.508,32.598c-8.475,3.094-14.5-2.775-15.803-9.773
				C515.654,399.793,509.785,404.686,502.939,403.383z"/>
			<path fill="#ED1C24" d="M561.908,431c-3.682,0-6.611-1.135-8.949-3.473c-7.329-7.328-2.529-26.563,0.988-37.377
				c2.886-9.467,5.576-18.977,8.188-28.184l1.404-4.961c1.752-5.172,3.277-10.631,4.756-15.904c0.9-3.203,1.766-6.281,2.641-9.162
				c-1.498-0.051-3.029-0.064-4.61-0.078c-6.319-0.078-12.854-0.162-18.491-1.803c-4.82-1.384-7.83-4.999-7.293-8.824
				c0.404-2.86,3.092-6.203,9.348-6.203c1.119,0.031,2.82,0.135,4.909,0.264c4.741,0.284,11.243,0.672,16.153,0.672
				c2.402,0,3.764-0.1,4.521-0.193c0.686-1.951,1.428-4.04,2.158-6.148c2.119-6.059,4.299-12.322,5.96-15.982
				c0.944-1.995,2.864-3.1,5.263-3.1c3.869,0,8.49,2.757,10.875,5.348c2.098,2.287,2.41,4.287,2.303,5.557
				c-0.434,3.811-1.672,7.137-2.975,10.654c-0.414,1.1-0.82,2.213-1.225,3.357l5.348-0.06c8.641-0.119,15.439-0.204,22.34-0.204
				c7.405,0,11.615,0.174,12.107,3.801c0.473,3.547-3.592,4.656-6.855,5.536c-11.393,3.716-23.215,6.044-38.043,7.472
				c-0.02,0.051-0.05,0.09-0.074,0.123c-12.596,34.664-26.314,79.064-25.488,85.447l0.023,0.029l0.096,0.309
				c1.84-0.557,9.471-4.85,32.078-37.223l0.836-1.195c1.324-2.104,2.932-3.814,5.242-5.59c0.742-0.607,2.877-2.17,4.967-2.17
				c1.422,0,2.685,0.697,3.396,1.859c1.277,2.131,0.244,4.707-1.054,7.18c-0.142,0.303-21.155,43.924-43.218,49.092
				C567.229,430.422,564.498,431,561.908,431z"/>
			<path fill="#ED1C24" d="M602.864,381.381c1.136-1.795,2.435-3.268,4.558-4.891c1.796-1.473,5.711-3.428,2.443,2.768
				c-3.746,7.986-22.982,43.191-41.078,47.434c-5.372,1.303-10.099,1.949-13.527-1.469c-6.355-6.357-0.486-27.055,1.787-34.068
				c3.428-11.246,6.526-22.334,9.632-33.254c3.253-9.615,5.854-20.705,8.629-29.016c-8.476-0.646-18.738,0.33-26.572-1.949
				c-6.835-1.965-6.835-8.65,1.153-8.65c4.727,0.179,24.609,1.801,27.708,0.332c0.322-0.153,0.491-0.332,0.491-0.49
				c2.771-7.656,6.185-18.094,8.471-23.146c1.797-3.747,12.553,2.287,12.219,6.191c-0.643,5.706-3.578,10.762-5.373,17.605
				c13.696-0.16,22.828-0.313,32.115-0.313c6.029,0,14.018,0.313,4.401,2.924c-13.535,4.403-26.412,6.358-38.794,7.497
				c-0.976,0.164-0.492,0.164-1.146,1.313c0,0.16-0.323,0.482-0.323,0.643c-10.436,28.688-28.363,83.631-25.434,88.188
				C568.469,431.582,598.951,386.912,602.864,381.381z"/>
			<path fill="#ED1C24" d="M612.969,410.391c-3.641,0-7-1.113-9.73-3.229c-8.355-5.664-6.924-22.996-4.988-30.08
				c0.453-2.08,1.317-3.355,2.901-4.152c0.048-0.203,0.094-0.408,0.153-0.623c0.521-2.084,1.114-4.461,2.371-6.49
				c3.007-5.234,9.604-14.318,19.525-15.387c0.953-0.176,2.075-0.27,3.159-0.27c4.724,0,8.718,1.883,11.571,5.453
				c4.178,4.525,4.779,10.438,4.535,14.633c0.195-0.063,0.383-0.123,0.567-0.188c1.112-0.363,2.214-0.727,3.208-0.975
				c1.289-0.34,2.711-0.816,4.133-1.283c1.863-0.633,3.791-1.273,5.578-1.674l0.344-0.072h0.352c2.742,0,4.1,1.588,4.443,3.074
				c1.148,4.811-8.263,10.057-8.363,10.111c-2.754,1.295-5.337,2.08-7.848,2.852c-2.219,0.682-4.334,1.324-6.249,2.238
				C628.729,401.854,620.32,410.391,612.969,410.391z M616.014,387.793c-0.234,2.496-0.06,5.834,0.438,8.414
				c1.916-2.014,4.289-5.287,5.942-8.215c-0.5,0.004-0.978,0.004-1.46,0.004C619.161,387.996,617.515,387.932,616.014,387.793z
				 M619.48,373.727c2.447,0,5.75-0.395,7.746-0.619c0.113-0.01,0.236-0.029,0.352-0.045c1.025-2.92,1.025-6.654-0.787-8.461
				c-0.337-0.373-0.813-0.525-1.332-0.525c-0.402,0-0.825,0.098-1.164,0.287c-3.019,1.795-4.814,4.293-6.715,7.197
				c0.479,0.666,0.832,1.383,1.039,2.145C618.854,373.715,619.48,373.727,619.48,373.727z"/>
			<path fill="#ED1C24" d="M647.034,372.246c3.099-0.82,6.685-2.277,9.614-2.928c4.244,0-3.094,5.859-5.372,7.004
				c-5.222,2.441-10.431,3.098-15.007,5.541c-3.916,7.01-14.496,25.27-23.301,25.27c-2.775,0-5.547-0.82-7.826-2.611
				c-6.684-4.398-5.539-20.049-3.749-26.574c0.646-2.93,1.628-1.625,2.606-3.094c0.651-2.283,1.143-5.213,2.448-7.328
				c3.745-6.52,9.614-13.041,17.11-13.863c4.732-0.814,8.975,0.334,11.904,4.074c5.203,5.547,3.747,14.342,3.094,16.799
				C641.163,374.365,644.427,372.898,647.034,372.246z"/>
		</g>
		<g>
			<path fill="#FFFFFF" d="M108.085,346.615c2.763-0.324,5.701-0.816,8.632-1.146c1.141,0,1.798-0.322,2.12-1.625
				c5.709-9.133,24.295-43.527,39.779-36.189c4.396,2.109,7.174,5.869,4.396,7.656c-2.935,1.795-7.167,2.779-9.455,5.217
				c-5.703,5.711-9.281,13.854-14.016,19.725c18.098-2.447,66.83-37.328,53.139-44.173c-8.805-4.562-21.833-3.587-32.436-0.98
				c-10.112,2.278-31.139,11.904-36.517,20.212c-8.8-17.764,24.776-29.499,36.35-31.951c13.364-2.931,24.45-2.931,35.052,2.452
				c9.615,4.239,13.686,15.81,9.946,24.122c-9.792,21.682-32.285,35.535-53.798,42.223c-0.648,0.318-1.469,0.486-2.119,0.811
				c-0.326,0-0.326,0.65-0.326,0.979c0,14.506,10.1,35.855,20.047,45.805c14.677,14.512,38.805,19.725,57.221,12.545
				c0.155,0,0.155,0.164,0.155,0.334c0.165,0.33,0.329,0.82,0.165,1.303c-2.77,10.76-21.023,15.158-33.412,13.531
				c-32.764-4.402-56.564-39.281-58.844-71.229c-1.627,0-2.938,0-3.75,0c-0.658,0-1.309,0.324-1.309,0.652
				c-7.172,11.893-8.964,25.752-14.996,37.814c-0.976,1.949-2.279,1.949-3.42,0c-1.301-1.957-1.953-4.078-2.285-6.689
				c-1.307-12.875,0-23.141,5.056-33.748c-1.95-0.646-3.751-1.297-5.708-1.789c-1.944-0.652-3.75-1.627-4.729-3.582
				C104.173,347.256,106.127,346.938,108.085,346.615z"/>
			<path fill="#FFFFFF" d="M215.986,349.545c4.566,0.984,7.342,4.719,6.365,9.783c-0.818,4.721-2.121,7.82-6.034,11.41
				c-4.077,3.422-15.153,11.9-15.153,16.457c-1.469,11.088,11.893,5.213,16.454,2.605c5.552-3.74,14.679-12.709,19.077-16.781
				c1.795-1.799,2.936-3.424,4.879-4.404c1.804-0.488,3.107-0.641,1.804,2.285c-1.636,3.584-4.409,6.844-7.178,10.105
				c-7.659,8.795-17.925,19.885-29.179,21.518c-9.941,0.65-17.121-4.076-17.121-14.836
				C189.259,371.059,198.385,349.867,215.986,349.545z M205.396,368.943c4.729-3.42,8.799-6.684,10.59-11.902
				C210.125,359.16,206.865,362.26,205.396,368.943z"/>
			<path fill="#FFFFFF" d="M271.252,356.391c13.689-28.853,25.742-52.979,42.864-74.821c9.784-11.078,10.919,6.194,10.103,12.878
				c-6.678,26.896-22.811,53.783-39.438,80.197c-0.98,1.303-1.466,2.771-1.961,4.404c-0.975,3.744-2.604,16.305,0.98,18.26
				c5.371,2.764,21.354-8.965,29.654-17.775c0.992-0.816,4.252,2.607,1.146,5.221c-9.934,8.805-31.133,29.66-42.052,23.961
				c-10.104-5.049-6.681-25.754-5.542-33.732c-0.322,0.484-0.648,1.289-1.139,1.941c-6.029,7.014-16.14,21.852-27.057,17.941
				c-2.939-1.797-5.709-4.078-5.709-8.158c0-16.131,13.363-34.717,30.318-33.248c2.447,0.324,5.061,0.975,6.846,2.932
				c0.332,0.326,0.332,0.326,0.656,0.65C270.924,356.717,271.252,356.391,271.252,356.391z M245.656,382.141
				c7.34-5.869,14.83-11.725,22.826-17.27c-8.971-4.568-23.161,8.799-23.161,16.787
				C245.321,381.658,245.321,381.658,245.656,382.141z M286.242,367.148c9.947-18.088,29.67-49.555,32.287-66.832
				C304.83,321.176,294.223,343.668,286.242,367.148z"/>
			<path fill="#FFFFFF" d="M355.195,376.924c1.137-1.787,2.449-3.254,4.561-4.881c1.804-1.467,5.709-3.428,2.443,2.77
				c-3.736,7.98-22.979,43.193-41.072,47.432c-5.383,1.305-10.105,1.955-13.531-1.467c-6.358-6.363-0.487-27.057,1.801-34.07
				c3.419-11.24,6.516-22.33,9.609-33.248c3.268-9.615,5.875-20.699,8.641-29.016c-8.479-0.662-18.737,0.322-26.57-1.955
				c-6.854-1.961-6.854-8.641,1.146-8.641c4.723,0.159,24.607,1.796,27.711,0.328c0.318-0.169,0.488-0.328,0.488-0.497
				c2.773-7.651,6.191-18.097,8.475-23.146c1.784-3.746,12.553,2.289,12.229,6.203c-0.664,5.701-3.594,10.753-5.387,17.594
				c13.699-0.154,22.827-0.323,32.115-0.323c6.033,0,14.024,0.323,4.409,2.93c-13.531,4.407-26.412,6.361-38.804,7.507
				c-0.977,0.154-0.48,0.154-1.145,1.303c0,0.165-0.322,0.492-0.322,0.646c-10.437,28.693-28.361,83.627-25.431,88.191
				C320.805,427.139,351.285,382.475,355.195,376.924z"/>
			<path fill="#FFFFFF" d="M399.371,367.805c3.094-0.816,6.68-2.281,9.619-2.934c4.23,0-3.107,5.867-5.383,7.004
				c-5.222,2.441-10.439,3.107-15.002,5.541c-3.91,7.014-14.5,25.266-23.307,25.266c-2.777,0-5.543-0.811-7.826-2.609
				c-6.684-4.395-5.539-20.039-3.748-26.563c0.653-2.934,1.633-1.635,2.607-3.094c0.65-2.289,1.141-5.217,2.443-7.342
				c3.746-6.516,9.615-13.037,17.121-13.859c4.717-0.805,8.961,0.33,11.896,4.074c5.218,5.543,3.753,14.354,3.097,16.795
				C393.492,369.92,396.761,368.451,399.371,367.805z M379.802,380.033c-4.397,0.322-9.773,0.482-14.013-0.334
				c-1.472,3.914-0.813,13.699,1.306,17.111C371.318,395.84,378.673,384.588,379.802,380.033z M382.58,370.738
				c1.791-4.082,1.961-9.783-1.146-12.881c-1.458-1.623-4.236-1.957-6.357-0.816c-4.396,2.609-6.516,6.193-8.961,9.947
				c0,0.318,0,0.816,0.329,1.139c0.974,0.816,1.624,1.957,1.463,3.26c0,2.283,11.571,0.488,13.692,0.318
				C381.93,371.705,382.58,371.059,382.58,370.738z"/>
			<path fill="#FFFFFF" d="M407.188,398.447c-3.426,3.098-5.375-1.637-5.701-4.244c-0.488-3.902,0.326-9.615,0.648-10.912
				c1.955-7.502,5.709-19.883,8.157-27.057c1.795-5.063,9.94-2.123,8.147,6.518c-0.82,4.236-2.123,8.801-2.928,12.873
				c6.348-7.01,12.545-14.67,18.414-22.008c2.768-1.949,6.354-0.811,7.82,2.941c1.631,3.904,1.145,8.145,0.339,11.893
				c6.187-6.52,15.475-13.52,23.464-16.783c7.828-3.105,13.531,5.373,13.043,14.664c-5.06,10.76-10.432,20.375-10.113,30.643
				c2.939,1.971,15.979-11.406,23.475-17.441c10.6-8.475,11.411-6.514,4.236,1.973c-6.838,8.295-14.662,16.777-23.309,22.643
				c-5.541,3.744-16.297,0.492-17.275-8.152c-1.469-11.242,6.686-25.754,11.734-35.533c-1.299-3.576-19.068,14.021-30.318,24.777
				c-2.288,2.119-3.424,2.447-4.24,2.447c-4.396,0-1.954-16.949-1.145-20.381C422.674,377.416,414.846,388.012,407.188,398.447z"/>
			<path fill="#FFFFFF" d="M498.314,398.945c-2.607-0.334-4.73-1.971-6.69-3.926c-1.949-1.951-2.118-6.516-1.949-8.637
				c1.144-5.709,3.089-12.223,5.864-18.256c4.73-9.941,12.068-18.748,22.489-20.871c7.179-1.955,15.978,2.939,14.187,10.107
				c-0.651,2.447-2.607,6.045-3.75,3.422c-0.483-1.135-0.977-5.539-4.896-5.539c-8.303,0-22.329,23.955-23.951,30.814
				c-4.079,16.951,21.349-18.418,22.171-19.072c5.542-4.4,12.217,2.115,9.604,7.656c-1.462,3.422-4.715,8.969-5.37,12.551
				c-0.652,5.705,1.139,7.332,6.355,5.383c8.148-3.582,19.067-19.559,24.449-23.963c0.651-0.641,1.795-1.627,2.447-1.309
				c0.98,0.336,0.98,1.309,0.98,2.127c-5.701,14.01-15.655,27.541-29.504,32.594c-8.485,3.105-14.51-2.764-15.813-9.771
				C511.023,395.354,505.154,400.238,498.314,398.945z"/>
			<path fill="#FFFFFF" d="M598.236,376.924c1.139-1.787,2.442-3.254,4.564-4.881c1.785-1.467,5.702-3.428,2.438,2.77
				c-3.744,7.98-22.98,43.193-41.079,47.432c-5.376,1.305-10.101,1.955-13.522-1.467c-6.364-6.363-0.494-27.057,1.785-34.07
				c3.432-11.24,6.53-22.33,9.625-33.248c3.258-9.615,5.869-20.699,8.639-29.016c-8.475-0.662-18.748,0.322-26.567-1.955
				c-6.849-1.961-6.849-8.641,1.14-8.641c4.715,0.159,24.613,1.796,27.713,0.328c0.318-0.169,0.481-0.328,0.481-0.497
				c2.776-7.651,6.192-18.097,8.478-23.146c1.795-3.746,12.561,2.289,12.227,6.203c-0.651,5.701-3.583,10.753-5.383,17.594
				c13.693-0.154,22.826-0.323,32.119-0.323c6.024,0,14.018,0.323,4.393,2.93c-13.523,4.407-26.398,6.361-38.783,7.507
				c-0.993,0.154-0.493,0.154-1.145,1.303c0,0.165-0.328,0.492-0.328,0.646c-10.437,28.693-28.365,83.627-25.426,88.191
				C563.836,427.139,594.314,382.475,598.236,376.924z"/>
			<path fill="#FFFFFF" d="M642.402,367.805c3.109-0.816,6.69-2.281,9.615-2.934c4.244,0-3.093,5.867-5.373,7.004
				c-5.217,2.441-10.435,3.107-14.996,5.541c-3.91,7.014-14.506,25.266-23.315,25.266c-2.771,0-5.532-0.811-7.82-2.609
				c-6.676-4.395-5.542-20.039-3.744-26.563c0.651-2.934,1.62-1.635,2.606-3.094c0.645-2.289,1.138-5.217,2.441-7.342
				c3.746-6.516,9.615-13.037,17.121-13.859c4.721-0.805,8.965,0.33,11.885,4.074c5.229,5.543,3.756,14.354,3.109,16.795
				C636.533,369.92,639.795,368.451,642.402,367.805z M622.842,380.033c-4.396,0.322-9.773,0.482-14.016-0.334
				c-1.468,3.914-0.816,13.699,1.303,17.111C614.361,395.84,621.699,384.588,622.842,380.033z M625.613,370.738
				c1.801-4.082,1.955-9.783-1.141-12.881c-1.461-1.623-4.24-1.957-6.355-0.816c-4.407,2.609-6.518,6.193-8.964,9.947
				c0,0.318,0,0.816,0.323,1.139c0.979,0.816,1.633,1.957,1.473,3.26c0,2.283,11.57,0.488,13.689,0.318
				C624.961,371.705,625.613,371.059,625.613,370.738z"/>
		</g>
		<g>
			<path fill="#ED1C24" d="M198.273,430.219c-1.934,0-3.813-0.121-5.578-0.354c-33.924-4.557-57.553-40.029-60.758-71.203h-1.068
				c-3.646,6.229-5.898,13.197-8.066,19.947c-1.845,5.721-3.756,11.639-6.521,17.176c-1.225,2.443-2.913,2.801-3.813,2.801
				c-1.062,0-2.585-0.461-3.872-2.666c-1.371-2.055-2.195-4.432-2.6-7.6c-1.296-12.84-0.051-22.75,4.152-32.609
				c-0.986-0.316-1.954-0.621-2.99-0.885c-2.096-0.695-4.817-1.891-6.303-4.85l-0.648-1.289l0.835-1.188
				c1.724-2.469,4.449-2.916,6.644-3.279c1.361-0.162,2.643-0.346,3.949-0.527c1.592-0.234,3.204-0.451,4.818-0.637h0.074
				l0.253-0.502c0.539-0.865,1.192-1.939,1.945-3.203c6.86-11.412,21.126-35.147,35.399-35.147c1.906,0,3.776,0.416,5.527,1.257
				c3.201,1.542,6.686,4.362,6.891,7.691c0.105,1.69-0.698,3.228-2.213,4.203c-1.289,0.785-2.68,1.387-4.006,1.973
				c-1.92,0.828-3.902,1.692-4.988,2.855c-3.213,3.219-5.763,7.305-8.236,11.252c-0.577,0.922-1.162,1.852-1.754,2.787
				c17.201-6.224,45.807-27.31,47.26-36.059c0.158-0.992-0.088-1.447-1.008-1.92c-3.749-1.941-8.609-2.926-14.458-2.926
				c-5.007,0-10.654,0.745-16.32,2.139c-10.498,2.362-30.334,11.889-35.056,19.165l-2.309,3.587l-1.896-3.819
				c-2.227-4.492-2.291-8.979-0.18-13.316c6.201-12.805,29.68-20.281,38.196-22.081c6.179-1.353,11.556-2.015,16.433-2.015
				c7.414,0,14.027,1.531,20.219,4.671c5.082,2.239,9.109,6.511,11.21,11.978c1.968,5.144,1.912,10.726-0.149,15.302
				c-8.781,19.449-28.867,35.289-55.127,43.49c-0.281,0.131-0.574,0.24-0.87,0.34c0.448,14.314,10.392,34.361,19.306,43.271
				c9.516,9.412,23.634,15.033,37.746,15.033c6.037,0,11.717-1.016,16.875-3.014l0.431-0.174h0.452c1.121,0,2.262,0.725,2.525,2.117
				c0.346,0.904,0.387,1.861,0.096,2.717C225.998,425.309,211.021,430.219,198.273,430.219z"/>
			<path fill="#ED1C24" d="M205.244,405.008c-11.117,0-17.766-6.473-17.766-17.32c-0.475-12.092,3.892-24.906,11.123-32.566
				c4.829-5.109,10.822-7.885,17.344-8.006l0.281-0.004l0.272,0.061c6.024,1.293,9.412,6.477,8.228,12.609
				c-0.842,4.895-2.219,8.566-6.773,12.74l-1.799,1.502c-3.104,2.541-12.568,10.301-12.568,13.172
				c-0.229,1.84-0.091,3.002,0.367,3.521c0.408,0.469,1.303,0.563,1.973,0.563c3.332,0,8.161-2.25,10.494-3.58
				c4.172-2.832,11.104-9.369,15.678-13.707c1.117-1.049,2.115-1.984,2.949-2.756c0.377-0.383,0.775-0.816,1.164-1.234
				c1.205-1.297,2.443-2.635,4.284-3.559l0.222-0.1l0.223-0.061c0.803-0.229,1.482-0.369,2.138-0.369
				c1.604,0,2.411,0.877,2.741,1.389c0.955,1.463,0.38,3.207-0.223,4.582c-1.783,3.924-4.712,7.361-7.543,10.689
				c-6.239,7.166-17.822,20.49-30.675,22.344C206.527,404.982,205.881,405.008,205.244,405.008z"/>
			<path fill="#ED1C24" d="M276.781,412.117c-1.963,0-3.775-0.418-5.357-1.25c-8.64-4.322-8.931-17.141-7.973-27.215
				c-5.498,6.607-12.631,14.283-20.955,14.283c-1.53,0-3.043-0.264-4.502-0.793l-0.239-0.088l-0.21-0.125
				c-3.191-1.951-6.863-4.879-6.863-10.223c0-16.877,13.197-35.756,30.854-35.756c0.693,0,1.396,0.031,2.104,0.09
				c2.039,0.268,4.411,0.762,6.472,2.078c12.913-27.123,25.135-51.398,42.091-73.042c2.735-3.1,5.125-4.552,7.423-4.552
				c1.539,0,2.945,0.661,4.045,1.899c3.639,4.119,3.35,14.133,2.961,17.321c-6.784,27.395-22.701,54.027-39.803,81.197
				c-0.848,1.139-1.248,2.338-1.685,3.811c-1.301,5.004-1.636,14.23-0.153,15.441c0.02,0.008,0.278,0.094,0.764,0.094
				c5.352,0,18.346-9.357,25.947-17.412c0.75-0.656,1.41-0.879,2.127-0.879c1.697,0,3.461,1.422,4.176,3.408
				c0.822,2.232,0.127,4.541-1.84,6.207c-0.922,0.811-1.998,1.783-3.164,2.84C303.026,398.492,287.951,412.117,276.781,412.117z
				 M261.535,366.83c-2.654,0.801-5.564,2.604-8.195,5.135c-1.073,1.039-2.031,2.137-2.839,3.242
				C254.051,372.432,257.74,369.617,261.535,366.83z"/>
			<path fill="#ED1C24" d="M314.24,425.717c-3.453,0-6.181-1.057-8.352-3.223c-7.283-7.273-1.592-27.979,1.198-36.539
				c2.923-9.59,5.643-19.232,8.28-28.543l1.306-4.621c1.753-5.162,3.28-10.635,4.767-15.926c0.997-3.578,1.965-7.016,2.946-10.174
				c-1.83-0.069-3.735-0.095-5.713-0.115c-6.262-0.074-12.747-0.148-18.276-1.76c-4.406-1.264-7.172-4.518-6.691-7.908
				c0.357-2.533,2.794-5.488,8.518-5.488c1.088,0.03,2.791,0.14,4.864,0.266c4.753,0.276,11.272,0.675,16.212,0.675
				c3.01,0,4.457-0.159,5.115-0.274c0.752-2.093,1.555-4.367,2.352-6.67c2.104-6.023,4.285-12.256,5.916-15.884
				c0.803-1.671,2.429-2.606,4.502-2.606c3.499,0,7.962,2.582,10.268,5.085c1.52,1.661,2.219,3.308,2.09,4.919
				c-0.418,3.689-1.641,6.969-2.93,10.432c-0.541,1.469-1.098,2.945-1.607,4.508l7.031-0.092c8.395-0.109,15.056-0.193,21.818-0.193
				c8.285,0,10.932,0.424,11.285,3.079c0.369,2.831-3.138,3.78-6.242,4.622c-11.484,3.735-23.379,6.068-38.366,7.496
				c-0.094,0.219-0.201,0.402-0.295,0.536c-12.962,35.677-26.931,81.073-25.508,86.19c0.286,0.754,0.424,0.879,0.437,0.879
				c1.646-0.006,8.814-2.732,33.22-37.668l0.831-1.189c1.29-2.043,2.826-3.701,5.064-5.416c0.701-0.566,2.643-1.99,4.465-1.99
				c1.141,0,2.115,0.533,2.676,1.457c1.072,1.771,0.119,4.109-1.072,6.363c-0.152,0.328-21.338,43.67-42.671,48.658
				C319.411,425.16,316.735,425.717,314.24,425.717z"/>
			<path fill="#ED1C24" d="M365.299,405.107c-3.494,0-6.723-1.084-9.323-3.117c-7.941-5.219-6.495-22.203-4.588-29.125
				c0.513-2.334,1.491-3.234,2.802-3.793c0.079-0.328,0.159-0.666,0.252-1.004c0.505-2.039,1.082-4.336,2.27-6.262
				c2.936-5.119,9.359-13.965,18.918-15.002c0.943-0.166,2.025-0.264,3.059-0.264c4.513,0,8.33,1.824,11.016,5.262
				c4.385,4.646,4.609,11.107,4.189,15.168c0.564-0.176,1.152-0.369,1.738-0.563c1.101-0.357,2.164-0.715,3.146-0.955
				c1.318-0.355,2.754-0.832,4.191-1.309c1.844-0.623,3.748-1.254,5.49-1.646l0.254-0.057h0.277c2.838,0,3.5,1.861,3.629,2.43
				c0.969,4.078-7.836,9.121-7.932,9.172c-2.68,1.27-5.244,2.039-7.721,2.801c-2.34,0.717-4.57,1.396-6.602,2.402
				C380.564,396.646,372.371,405.107,365.299,405.107z M367.624,382.424c-0.453,3.125-0.142,7.91,0.687,10.959
				c2.494-2.123,5.924-6.939,7.835-10.713c-0.992,0.033-1.95,0.053-2.876,0.053C371.197,382.723,369.301,382.619,367.624,382.424z
				 M370.281,370.043c0.348,0.041,0.842,0.064,1.527,0.064l0,0c2.496,0,5.838-0.385,7.844-0.621
				c0.309-0.039,0.602-0.074,0.861-0.096c1.275-3.197,1.43-7.594-0.787-9.822c-0.48-0.518-1.163-0.777-1.933-0.777
				c-0.556,0-1.087,0.135-1.562,0.389c-3.395,2.008-5.257,4.77-7.33,7.969C369.621,367.975,370.102,368.979,370.281,370.043z"/>
			<path fill="#ED1C24" d="M467.409,408.111c-6.245,0-13.343-4.154-14.218-11.848c-1.268-9.756,4.031-21.418,8.852-30.846
				c-5.582,4.506-14.432,13.008-19.877,18.246l-3.471,3.326c-2.387,2.221-4.102,3.125-5.914,3.125c-1.258,0-2.387-0.566-3.203-1.611
				c-1.975-2.498-1.975-8.299-1.512-13.287c-6.967,8.393-13.244,16.928-18.915,24.668l-0.146,0.199l-0.182,0.158
				c-1.211,1.096-2.479,1.646-3.781,1.646c-3.467,0-5.523-3.83-5.959-7.375c-0.541-4.229,0.287-10.162,0.697-11.814
				c1.91-7.322,5.667-19.795,8.209-27.25c0.906-2.553,3.045-4.123,5.598-4.123c2.047,0,4.031,1.002,5.461,2.754
				c1.885,2.318,2.509,5.57,1.766,9.162c-0.22,1.131-0.475,2.301-0.749,3.492c4.118-4.859,8.13-9.834,11.958-14.639l0.213-0.262
				l0.283-0.201c1.293-0.91,2.758-1.387,4.258-1.387c3.152,0,5.925,2.082,7.232,5.428c0.879,2.104,1.219,4.277,1.248,6.365
				c6.18-5.461,13.316-10.146,19.377-12.619c1.392-0.559,2.779-0.83,4.131-0.83c2.842,0,5.477,1.188,7.607,3.441
				c3.203,3.377,4.939,8.77,4.641,14.428l-0.029,0.48c0,0-1.488,3.141-2.124,4.467c-3.726,7.766-7.276,15.152-7.881,22.549
				c3.116-1.914,8.642-6.85,12.249-10.064c2.621-2.332,5.099-4.545,7.205-6.242c6.92-5.529,8.791-5.992,10-5.992
				c1.141,0,2.139,0.615,2.602,1.598c0.777,1.684,0.215,3.654-4.988,9.803c-5.553,6.744-14.099,16.51-23.805,23.102
				C472.358,407.441,469.99,408.111,467.409,408.111z"/>
			<path fill="#ED1C24" d="M526.232,405.307c-5.514,0-10.324-3.541-12.603-8.971c-3.396,2.527-7.868,5.242-13.032,5.242
				c-0.921,0-1.84-0.08-2.741-0.256c-3.382-0.428-6.024-2.672-7.939-4.576c-3.142-3.154-2.726-9.805-2.661-10.561
				c1.333-6.736,3.473-13.4,6.079-19.076c4.168-8.756,11.73-19.684,24.22-22.227c1.104-0.309,2.434-0.482,3.787-0.482
				c4.575,0,8.959,1.971,11.436,5.145c1.904,2.445,2.541,5.426,1.792,8.412c-0.284,1.049-1.768,6.004-4.981,6.172
				c1.354,0.717,2.541,1.811,3.408,3.174c1.632,2.576,1.86,5.701,0.602,8.377c-0.432,1.023-1.094,2.34-1.775,3.74
				c-1.348,2.707-3.024,6.084-3.412,8.213c-0.283,2.479,0.115,3.195,0.18,3.287l0,0c0.032,0,0.133,0.02,0.316,0.02
				c0.419,0,1.219-0.111,2.621-0.635c4.598-2.031,10.865-9.307,15.908-15.162c3.096-3.59,5.762-6.691,7.861-8.4
				c1.238-1.266,2.461-1.916,3.676-1.916h0.58l0.479,0.188v-0.004c2.65,0.871,2.65,3.545,2.65,4.424v0.477l-0.185,0.438
				c-4.043,9.953-13.455,27.592-30.918,33.953C529.768,404.963,527.981,405.307,526.232,405.307z M523.569,357.678
				c-6.024,0-19.837,21.592-21.588,28.951c-0.036,0.125-0.061,0.248-0.095,0.371c2.342-2.104,7.023-7.275,15.951-18.916
				c1.956-2.547,2.09-2.717,2.434-2.996c1.631-1.297,3.497-1.973,5.396-1.973c0.544,0,1.09,0.059,1.619,0.168
				c-0.381-0.348-0.742-0.836-1.042-1.521c-0.118-0.273-0.242-0.646-0.372-1.115C525.211,358.373,524.67,357.678,523.569,357.678z"
				/>
			<path fill="#ED1C24" d="M557.276,425.717c-3.452,0-6.188-1.057-8.361-3.223c-7.263-7.273-1.578-27.979,1.198-36.539
				c2.875-9.436,5.571-18.916,8.163-28.078l1.433-5.086c1.752-5.162,3.287-10.645,4.77-15.932c1.006-3.572,1.955-7.01,2.939-10.168
				c-1.83-0.069-3.732-0.095-5.704-0.115c-6.272-0.074-12.745-0.148-18.276-1.76c-4.414-1.264-7.173-4.518-6.7-7.908
				c0.354-2.533,2.794-5.488,8.521-5.488c1.094,0.03,2.791,0.14,4.871,0.266c4.75,0.276,11.267,0.675,16.211,0.675
				c2.994,0,4.445-0.159,5.108-0.274c0.745-2.089,1.546-4.352,2.339-6.64c2.109-6.039,4.301-12.282,5.943-15.914
				c0.791-1.671,2.423-2.606,4.496-2.606c3.498,0,7.955,2.582,10.264,5.085c1.516,1.661,2.227,3.308,2.09,4.919
				c-0.429,3.689-1.646,6.969-2.936,10.447c-0.544,1.453-1.101,2.934-1.612,4.492l7.028-0.092
				c8.402-0.109,15.068-0.193,21.832-0.193c8.289,0,10.919,0.424,11.277,3.079c0.379,2.831-3.141,3.78-6.243,4.622
				c-11.48,3.735-23.374,6.068-38.357,7.496c-0.099,0.219-0.203,0.402-0.293,0.536c-12.973,35.677-26.939,81.073-25.519,86.19
				c0.289,0.754,0.428,0.879,0.428,0.879c1.662-0.006,8.83-2.732,33.234-37.668l0.836-1.189c1.297-2.043,2.828-3.701,5.059-5.416
				c0.69-0.566,2.65-1.99,4.466-1.99c1.14,0,2.12,0.533,2.679,1.457c1.068,1.771,0.123,4.109-1.071,6.363
				c-0.149,0.328-21.007,43.596-42.675,48.658C562.449,425.16,559.773,425.717,557.276,425.717z"/>
			<path fill="#ED1C24" d="M608.333,405.107c-3.497,0-6.716-1.084-9.323-3.117c-7.932-5.23-6.486-22.203-4.59-29.125
				c0.521-2.334,1.501-3.234,2.801-3.793c0.089-0.328,0.162-0.666,0.258-1.004c0.507-2.039,1.085-4.336,2.273-6.262
				c2.945-5.119,9.363-13.965,18.922-15.002c0.936-0.166,2.015-0.264,3.045-0.264c4.522,0,8.327,1.824,11.018,5.262
				c4.394,4.646,4.607,11.107,4.185,15.168c0.581-0.176,1.179-0.369,1.751-0.563c1.094-0.357,2.164-0.715,3.145-0.955
				c1.313-0.355,2.754-0.832,4.197-1.309c1.84-0.623,3.746-1.254,5.492-1.646l0.247-0.057h0.265c2.846,0,3.512,1.861,3.641,2.43
				c0.971,4.078-7.838,9.121-7.928,9.172c-2.682,1.27-5.244,2.039-7.717,2.801c-2.353,0.717-4.574,1.396-6.605,2.402
				C623.604,396.646,615.406,405.107,608.333,405.107z M610.656,382.424c-0.443,3.125-0.135,7.91,0.697,10.959
				c2.49-2.123,5.914-6.939,7.834-10.713c-1,0.033-1.951,0.053-2.875,0.053C614.234,382.723,612.342,382.619,610.656,382.424z
				 M613.318,370.043c0.357,0.041,0.85,0.064,1.531,0.064l0,0c2.498,0,5.839-0.385,7.824-0.621c0.338-0.039,0.623-0.074,0.881-0.096
				c1.27-3.197,1.432-7.594-0.795-9.822c-0.473-0.514-1.165-0.777-1.932-0.777c-0.557,0-1.094,0.135-1.563,0.389
				c-3.387,2.008-5.257,4.77-7.32,7.969C612.656,367.975,613.133,368.979,613.318,370.043z"/>
			<g>
				<path fill="#FFFFFF" d="M108.085,346.615c2.763-0.324,5.701-0.816,8.632-1.146c1.141,0,1.798-0.322,2.12-1.625
					c5.709-9.133,24.295-43.527,39.779-36.189c4.396,2.109,7.174,5.869,4.396,7.656c-2.935,1.795-7.167,2.779-9.455,5.217
					c-5.703,5.711-9.281,13.854-14.016,19.725c18.098-2.447,66.83-37.328,53.139-44.173c-8.805-4.562-21.833-3.587-32.436-0.98
					c-10.112,2.278-31.139,11.904-36.517,20.212c-8.8-17.764,24.776-29.499,36.35-31.951c13.364-2.931,24.45-2.931,35.052,2.452
					c9.615,4.239,13.686,15.81,9.946,24.122c-9.792,21.682-32.285,35.535-53.798,42.223c-0.648,0.318-1.469,0.486-2.119,0.811
					c-0.326,0-0.326,0.65-0.326,0.979c0,14.506,10.1,35.855,20.047,45.805c14.677,14.512,38.805,19.725,57.221,12.545
					c0.155,0,0.155,0.164,0.155,0.334c0.165,0.33,0.329,0.82,0.165,1.303c-2.77,10.76-21.023,15.158-33.412,13.531
					c-32.764-4.402-56.564-39.281-58.844-71.229c-1.627,0-2.938,0-3.75,0c-0.658,0-1.309,0.324-1.309,0.652
					c-7.172,11.893-8.964,25.752-14.996,37.814c-0.976,1.949-2.279,1.949-3.42,0c-1.301-1.957-1.953-4.078-2.285-6.689
					c-1.307-12.875,0-23.141,5.056-33.748c-1.95-0.646-3.751-1.297-5.708-1.789c-1.944-0.652-3.75-1.627-4.729-3.582
					C104.173,347.256,106.127,346.938,108.085,346.615z"/>
				<path fill="#FFFFFF" d="M215.986,349.545c4.566,0.984,7.342,4.719,6.365,9.783c-0.818,4.721-2.121,7.82-6.034,11.41
					c-4.077,3.422-15.153,11.9-15.153,16.457c-1.469,11.088,11.893,5.213,16.454,2.605c5.552-3.74,14.679-12.709,19.077-16.781
					c1.795-1.799,2.936-3.424,4.879-4.404c1.804-0.488,3.107-0.641,1.804,2.285c-1.636,3.584-4.409,6.844-7.178,10.105
					c-7.659,8.795-17.925,19.885-29.179,21.518c-9.941,0.65-17.121-4.076-17.121-14.836
					C189.259,371.059,198.385,349.867,215.986,349.545z M205.396,368.943c4.729-3.42,8.799-6.684,10.59-11.902
					C210.125,359.16,206.865,362.26,205.396,368.943z"/>
				<path fill="#FFFFFF" d="M271.252,356.391c13.689-28.853,25.742-52.979,42.864-74.821c9.784-11.078,10.919,6.194,10.103,12.878
					c-6.678,26.896-22.811,53.783-39.438,80.197c-0.98,1.303-1.466,2.771-1.961,4.404c-0.975,3.744-2.604,16.305,0.98,18.26
					c5.371,2.764,21.354-8.965,29.654-17.775c0.992-0.816,4.252,2.607,1.146,5.221c-9.934,8.805-31.133,29.66-42.052,23.961
					c-10.104-5.049-6.681-25.754-5.542-33.732c-0.322,0.484-0.648,1.289-1.139,1.941c-6.029,7.014-16.14,21.852-27.057,17.941
					c-2.939-1.797-5.709-4.078-5.709-8.158c0-16.131,13.363-34.717,30.318-33.248c2.447,0.324,5.061,0.975,6.846,2.932
					c0.332,0.326,0.332,0.326,0.656,0.65C270.924,356.717,271.252,356.391,271.252,356.391z M245.656,382.141
					c7.34-5.869,14.83-11.725,22.826-17.27c-8.971-4.568-23.161,8.799-23.161,16.787
					C245.321,381.658,245.321,381.658,245.656,382.141z M286.242,367.148c9.947-18.088,29.67-49.555,32.287-66.832
					C304.83,321.176,294.223,343.668,286.242,367.148z"/>
				<path fill="#FFFFFF" d="M355.195,376.924c1.137-1.787,2.449-3.254,4.561-4.881c1.804-1.467,5.709-3.428,2.443,2.77
					c-3.736,7.98-22.979,43.193-41.072,47.432c-5.383,1.305-10.105,1.955-13.531-1.467c-6.358-6.363-0.487-27.057,1.801-34.07
					c3.419-11.24,6.516-22.33,9.609-33.248c3.268-9.615,5.875-20.699,8.641-29.016c-8.479-0.662-18.737,0.322-26.57-1.955
					c-6.854-1.961-6.854-8.641,1.146-8.641c4.723,0.159,24.607,1.796,27.711,0.328c0.318-0.169,0.488-0.328,0.488-0.497
					c2.773-7.651,6.191-18.097,8.475-23.146c1.784-3.746,12.553,2.289,12.229,6.203c-0.664,5.701-3.594,10.753-5.387,17.594
					c13.699-0.154,22.827-0.323,32.115-0.323c6.033,0,14.024,0.323,4.409,2.93c-13.531,4.407-26.412,6.361-38.804,7.507
					c-0.977,0.154-0.48,0.154-1.145,1.303c0,0.165-0.322,0.492-0.322,0.646c-10.437,28.693-28.361,83.627-25.431,88.191
					C320.805,427.139,351.285,382.475,355.195,376.924z"/>
				<path fill="#FFFFFF" d="M399.371,367.805c3.094-0.816,6.68-2.281,9.619-2.934c4.23,0-3.107,5.867-5.383,7.004
					c-5.222,2.441-10.439,3.107-15.002,5.541c-3.91,7.014-14.5,25.266-23.307,25.266c-2.777,0-5.543-0.811-7.826-2.609
					c-6.684-4.395-5.539-20.039-3.748-26.563c0.653-2.934,1.633-1.635,2.607-3.094c0.65-2.289,1.141-5.217,2.443-7.342
					c3.746-6.516,9.615-13.037,17.121-13.859c4.717-0.805,8.961,0.33,11.896,4.074c5.218,5.543,3.753,14.354,3.097,16.795
					C393.492,369.92,396.761,368.451,399.371,367.805z M379.802,380.033c-4.397,0.322-9.773,0.482-14.013-0.334
					c-1.472,3.914-0.813,13.699,1.306,17.111C371.318,395.84,378.673,384.588,379.802,380.033z M382.58,370.738
					c1.791-4.082,1.961-9.783-1.146-12.881c-1.458-1.623-4.236-1.957-6.357-0.816c-4.396,2.609-6.516,6.193-8.961,9.947
					c0,0.318,0,0.816,0.329,1.139c0.974,0.816,1.624,1.957,1.463,3.26c0,2.283,11.571,0.488,13.692,0.318
					C381.93,371.705,382.58,371.059,382.58,370.738z"/>
				<path fill="#FFFFFF" d="M407.188,398.447c-3.426,3.098-5.375-1.637-5.701-4.244c-0.488-3.902,0.326-9.615,0.648-10.912
					c1.955-7.502,5.709-19.883,8.157-27.057c1.795-5.063,9.94-2.123,8.147,6.518c-0.82,4.236-2.123,8.801-2.928,12.873
					c6.348-7.01,12.545-14.67,18.414-22.008c2.768-1.949,6.354-0.811,7.82,2.941c1.631,3.904,1.145,8.145,0.339,11.893
					c6.187-6.52,15.475-13.52,23.464-16.783c7.828-3.105,13.531,5.373,13.043,14.664c-5.06,10.76-10.432,20.375-10.113,30.643
					c2.939,1.971,15.979-11.406,23.475-17.441c10.6-8.475,11.411-6.514,4.236,1.973c-6.838,8.295-14.662,16.777-23.309,22.643
					c-5.541,3.744-16.297,0.492-17.275-8.152c-1.469-11.242,6.686-25.754,11.734-35.533c-1.299-3.576-19.068,14.021-30.318,24.777
					c-2.288,2.119-3.424,2.447-4.24,2.447c-4.396,0-1.954-16.949-1.145-20.381C422.674,377.416,414.846,388.012,407.188,398.447z"/>
				<path fill="#FFFFFF" d="M498.314,398.945c-2.607-0.334-4.73-1.971-6.69-3.926c-1.949-1.951-2.118-6.516-1.949-8.637
					c1.144-5.709,3.089-12.223,5.864-18.256c4.73-9.941,12.068-18.748,22.489-20.871c7.179-1.955,15.978,2.939,14.187,10.107
					c-0.651,2.447-2.607,6.045-3.75,3.422c-0.483-1.135-0.977-5.539-4.896-5.539c-8.303,0-22.329,23.955-23.951,30.814
					c-4.079,16.951,21.349-18.418,22.171-19.072c5.542-4.4,12.217,2.115,9.604,7.656c-1.462,3.422-4.715,8.969-5.37,12.551
					c-0.652,5.705,1.139,7.332,6.355,5.383c8.148-3.582,19.067-19.559,24.449-23.963c0.651-0.641,1.795-1.627,2.447-1.309
					c0.98,0.336,0.98,1.309,0.98,2.127c-5.701,14.01-15.655,27.541-29.504,32.594c-8.485,3.105-14.51-2.764-15.813-9.771
					C511.023,395.354,505.154,400.238,498.314,398.945z"/>
				<path fill="#FFFFFF" d="M598.236,376.924c1.139-1.787,2.442-3.254,4.564-4.881c1.785-1.467,5.702-3.428,2.438,2.77
					c-3.744,7.98-22.98,43.193-41.079,47.432c-5.376,1.305-10.101,1.955-13.522-1.467c-6.364-6.363-0.494-27.057,1.785-34.07
					c3.432-11.24,6.53-22.33,9.625-33.248c3.258-9.615,5.869-20.699,8.639-29.016c-8.475-0.662-18.748,0.322-26.567-1.955
					c-6.849-1.961-6.849-8.641,1.14-8.641c4.715,0.159,24.613,1.796,27.713,0.328c0.318-0.169,0.481-0.328,0.481-0.497
					c2.776-7.651,6.192-18.097,8.478-23.146c1.795-3.746,12.561,2.289,12.227,6.203c-0.651,5.701-3.583,10.753-5.383,17.594
					c13.693-0.154,22.826-0.323,32.119-0.323c6.024,0,14.018,0.323,4.393,2.93c-13.523,4.407-26.398,6.361-38.783,7.507
					c-0.993,0.154-0.493,0.154-1.145,1.303c0,0.165-0.328,0.492-0.328,0.646c-10.437,28.693-28.365,83.627-25.426,88.191
					C563.836,427.139,594.314,382.475,598.236,376.924z"/>
				<path fill="#FFFFFF" d="M642.402,367.805c3.109-0.816,6.69-2.281,9.615-2.934c4.244,0-3.093,5.867-5.373,7.004
					c-5.217,2.441-10.435,3.107-14.996,5.541c-3.91,7.014-14.506,25.266-23.315,25.266c-2.771,0-5.532-0.811-7.82-2.609
					c-6.676-4.395-5.542-20.039-3.744-26.563c0.651-2.934,1.62-1.635,2.606-3.094c0.645-2.289,1.138-5.217,2.441-7.342
					c3.746-6.516,9.615-13.037,17.121-13.859c4.721-0.805,8.965,0.33,11.885,4.074c5.229,5.543,3.756,14.354,3.109,16.795
					C636.533,369.92,639.795,368.451,642.402,367.805z M622.842,380.033c-4.396,0.322-9.773,0.482-14.016-0.334
					c-1.468,3.914-0.816,13.699,1.303,17.111C614.361,395.84,621.699,384.588,622.842,380.033z M625.613,370.738
					c1.801-4.082,1.955-9.783-1.141-12.881c-1.461-1.623-4.24-1.957-6.355-0.816c-4.407,2.609-6.518,6.193-8.964,9.947
					c0,0.318,0,0.816,0.323,1.139c0.979,0.816,1.633,1.957,1.473,3.26c0,2.283,11.57,0.488,13.689,0.318
					C624.961,371.705,625.613,371.059,625.613,370.738z"/>
			</g>
		</g>
	</g>
	
		<text transform="matrix(1 0 0 1 205.3975 489.9961)" fill="#FFFFFF" stroke="#FFFFFF" stroke-width="0.25" stroke-miterlimit="10" font-family="'Corbel'" font-size="54.363">Design Studio</text>
	<g>
		<path fill="#00883E" d="M633.555,233.703c0.078-0.154,0.148-0.328,0.209-0.532c-0.332,1.066-10.383-5.892-11.232-6.372
			c-3.232-1.811-7.315-2.01-10.961-2.101c-4.06-0.101-6.89-1.537-10.637-2.873c-2.115-0.758-4.313-1.4-6.408-2.188
			c-1.982-0.748-3.502-2.086-5.285-3.116c-6.637-3.84-13.488-6.71-19.58-11.308c-3.967-2.988-9.316-5.414-14.127-7.148
			c-1.467-0.529-2.97-0.429-4.447-0.871c-3.405-1.021-6.297-4.154-9.146-6.072c-2.792-1.88-5.665-4.049-6.312-7.172
			c-0.958-4.621,4.495-7.373,8.938-8.248c2.676-0.527,5.445-1.152,8.189-1.426c6.927-0.69,12.652,1.559,19.276,3.189
			c4.717,1.163,9.667,1.313,13.798-0.885c2.713-1.441,6.975-4.752,5.82-8.033c-1.154-3.293-6.924-3.93-10.083-4.202
			c-1.882-0.161-3.774-0.187-5.62,0.067c-0.75,0.098-8.18,2.217-7.693,2.878c-0.107-0.146-0.309-0.302-0.432-0.452
			c-0.801,1.59-3.535,0.42-5.021,0.305c-2.824-0.215-5.528,0.482-8.323-0.419c-2.74-0.881-4.936-2.76-7.704-3.612
			c-1.729-0.533-1.615,0.266-3.196,0.473c-2.803,0.363-6.127-2.697-8.01-4.209c-1.957-1.574-4.838-3.346-1.881-4.996
			c2.133-1.195,4.197-2.478,5.309-4.596c0.632-1.198-0.383-2.422-0.068-3.662c0.286-1.15,1.547-2.178,2.266-3.137
			c0.957-1.265,1.676-1.613,3.223-2.323c1.834-0.841,3.213-2.204,5.095-2.995c2.151-0.902,4.544-1.354,6.32-2.806
			c1.425-1.168,2.833-2.424,3.812-3.918c0.824-1.266,1.104-2.77,1.963-4.013c0.916-1.333,2.5-2.079,3.395-3.444
			c1.432-2.17,3.444-4.1,3.699-6.729c0.201-2.125,0.657-4.666,1.969-6.463c1.275-1.744,4.28-1.93,5.249-3.803
			c0.487-0.938,0.317-2.373,0.399-3.6c-6.555-4.85-12.242-0.294-15.836,4.199c-3.391,4.242-8.951,6.958-13.072,10.639
			c-4.061,3.631-8.855,5.996-14.748,6.873c-3.778,0.561-6.957,1.143-10.362,2.627c-1.59,0.691-3.212,1.487-5.001,1.777
			c-2.271,0.371-3.697,0.985-5.748,1.699c-1.076,0.373-2.346,0.328-3.473,0.579c-2.602,0.577-5.074,1.962-7.896,1.711
			c-1.023-0.092-3.744-2.775-4.166-3.472c-0.818-1.373-1.75-3.371-2.132-4.879c-0.569-2.227-0.806-4.153-3.001-5.703
			c-2.287-1.61-4.144-2.464-4.752-5.147c-0.574-2.547-0.238-5.326,0.23-7.817c0.79-4.201,1.191-8.471,2.146-12.64
			c0.889-3.884,2.924-7.522,3.422-11.482c0.347-2.773,0.457-5.337,1.912-7.835c1.284-2.205,4.033-3.163,5.168-5.361
			c1.342-2.601,1.73-5.856,2.267-8.673c0.36-1.898,0.657-3.811,0.755-5.75c0.191-3.813-1.826-2.311-3.395,0.066
			c-1.678,2.533-3.17,4.813-5.672,6.772c-2.074,1.624-2.273,3.201-2.201,5.657c0.082,3.045-0.021,5.664-1.453,8.422
			c-2.066,3.973-2.295,8.52-4.326,12.498c-1.316,2.58-3.646,4.563-4.93,7.173c-1.275,2.596-1.975,5.363-3.514,7.856
			c-0.785,1.271-1.701,2.399-2.725,3.521c-1.346,1.466-3.359,0.084-4.059,1.473c-0.703,1.387-4.854,4.076-6.594,4.674
			c-1.918,0.655-3.459,0.721-5.514,0.246c-0.387-0.088-4.572,0.061-5.627,0.258s-2.727-2.382-3.586-1.061
			c-0.762,1.178,1.629,3.148,2.49,4.092c0.859,0.941-0.174,2.248-1.262,2.214c-1.094-0.034-3.309-3.7-5.055-3.446
			c-1.477,0.211-0.814,0.438-1.189,1.322c-1.304,3.139-2.609,0.373-4.148-1.344c-1.658-1.861-4.796-2.337-7.104-3.389
			c-3.803-1.731-5.711-3.949-8.002-6.979c-1.672-2.205-3.531-4.293-5.027-6.596c-0.697-1.076-1.494-2.251-1.947-3.413
			c-0.439-1.112-0.255-2.368-0.869-3.426c-1.105-1.91-3.033-2.618-3.76-4.824c-0.463-1.427-1.137-2.384-1.967-3.679
			c-0.926-1.453-1.038-4.309-3.137-4.99c-0.487,2.271-0.982,4.216,0.613,6.289c1.545,2.008,2.576,3.855,3.74,6.037
			c0.904,1.703,3.567,3.863,3.506,5.773c-0.141,4.178-6.303-1.734-7.054-2.662c-1.601-1.964-3.61-3.679-4.923-5.804
			c-1.542-2.491-2.295-5.258-3.811-7.749c-1.402-2.305-4.089-3.597-4.777-6.208c-0.404-1.527-0.311-3.078-0.988-4.572
			c-0.813-1.799-2.469-3.207-3.582-4.869c-1.303-1.951-2.139-4.119-3.781-5.906c-1.928-2.1-4.87-3.027-7.188-4.71
			c-1.454,1.065-1.643-0.396-3.195,0.024c-3.426,0.896-2.848,5.484-2.551,7.932c0.328,2.771,1.031,5.258,3.494,7.272
			c5.49,4.495,11.574,7.263,14.714,13.579c2.021,4.069,4.709,7.602,7.328,11.396c0.89,1.291,2.343,2.285,2.899,3.719
			c0.699,1.787,0.801,3.064,1.85,4.775c1.051,1.711,1.365,4.396,0.513,6.136c-0.684,1.414-3.2,1.857-3.503,3.358
			c-0.264,1.311,2.344,2.988,3.26,3.872c3.146,3.021,2.85,4.704,1.718,8.174c-0.37,1.136-0.167,2.24-0.313,3.397
			c-0.184,1.429-1.674,2.416-1.813,3.832c-0.146,1.561,1.487,2.63,1.759,4.117c0.416,2.294-1.412,0.82-2.143,2.271
			c-0.186,0.374-2.627,0.244-3.125,0.417c-1,0.345-2.404,0.532-3.459,0.255c-2.105-0.558-3.174-1.772-4.815-2.196
			c-1.644-0.424-2.546-0.691-3.892-1.283c-0.561-0.246-1.58-1.039-2.228-1.1c-0.593-0.053-2.534,0.268-3.799,0.126
			c-2.854-0.313-2.956-0.563-5.667-1.293c-2.639-0.71-3.983-2.566-6.75-3.253c-1.372-0.342-2.252-0.569-3.301-1.46
			c-0.783-0.665-1.234-1.681-2.381-1.86c-0.081,0.112-0.16,0.225-0.236,0.34c-1.213-0.5-2.123-0.008-3.277,0.244
			c-0.101-0.437-0.422-0.789-0.598-1.168c0.262,0.566-1.063,0.993-1.018,1.516c0.048,0.592,0.904,1.014,1.387,1.313
			c1.23,0.763,2.835,0.943,3.975,1.85c1.159,0.927,2.031,2.035,3.454,2.695c1.521,0.706,3.155,0.884,4.632,1.734
			c2.486,1.438,5.498,2.698,7.555,4.515c2.117,1.867,4.387,4.363,7.108,5.076c2.042,0.533,3.655,1.459,5.341,2.563
			c1.86,1.215,5.873,3.732,5.278,6.119c-0.331,1.344-2.912,1.954-4.332,1.633c-1.465-0.333-1.988-1.416-2.992-2.292
			c-0.894-0.786-2.411-1.836-3-0.324c-0.894,2.286,2.491,3.898,0.489,6.323c-1.654,1.992-2.305,9.251-7.031,7.066
			c-1.581-0.729-2.286-2.27-4.16-2.637c-2.164-0.424-4.279,0.786-5.936,1.727c1.563-0.889,2.836,2.18,2.551,3.055
			c-0.598,1.832-4.584,2.451-6.511,2.395c-2.524-0.072-4.974-0.723-7.505-0.627c-2.78,0.107-5.459,0.754-8.211,1
			c-3.709,0.33-7.216-0.02-10.928-0.588c-3.908-0.596-7.381-0.285-11.237-0.452c-1.8-0.077-3.52-0.571-5.333-0.588
			c-4.132-0.038-7.576-0.716-11.66-1.298c-4.309-0.617-8.957-0.596-12.273,1.951c-2.461,1.892-3.238,5.121-0.287,7.218
			c3.228,2.29,8.145,2.626,11.961,3.64c3.275,0.873,6.977,2.872,10.423,2.793c3.632-0.081,6.573-2.781,9.591-4.118
			c3.762-1.667,7.589-1.826,11.746-0.681c3.172,0.871,6.18,1.521,9.483,1.542c3.386,0.022,6.768-0.323,10.159,0.146
			c2.547,0.351,4.991,1.15,7.393,1.991c1.865,0.651,3.668,1.507,5.602,1.958c1.248,0.287,2.338-0.368,3.594-0.211
			c1.35,0.168,2.594,0.838,3.924,1.1c1.588,0.308,2.992,0.67,4.52,1.134c1.602,0.487,2.998-0.349,4.447,0.739
			c1.18,0.885,1.774,2.324,1.941,3.598c0.219,1.635,0.012,3.29,0.438,4.916c0.443,1.708,2.042,2.783,2.631,4.412
			c0.067,0.184,0.1,1.689,0.072,1.676c-1.965-0.978-0.564,1.917-0.438,2.459c0.322,1.369-0.515,2.402-1.469,3.361
			c-0.963,0.966-1.5,1.955-2.328,2.978c-0.686,0.853-1.985,0.899-2.659,1.884c-0.613,0.071-0.737-0.295-1.304-0.271
			c-0.361,0.762-1.066,1.232-1.471,1.949c-0.266,0.462-2.176,0.982-2.729,1.228c-1.063,0.469-2.139,0.922-3.251,1.297
			c-3.308,1.116-7.477-0.008-10.518,1.62c-1.594,0.854-3.297,1.629-4.561,2.839c-1.301,1.246-2.074,2.827-3.035,4.275
			c-1.243,1.889-2.676,3.221-4.592,4.592c-0.818,0.586-1.531,1.315-2.559,1.646c-0.82,0.268-1.701,0.234-2.488,0.599
			c-0.512,0.239-1.204,0.578-1.67,0.868c-0.637,0.402-0.615,0.814-1.062,1.332c-0.504,0.585-1.448,0.756-2.124,1.17
			c-0.668,0.413-1.186,1.069-1.967,1.339c-1.03,0.357-2.145-0.014-3.219-0.074c-1.26-0.068-2.148,0.352-3.32,0.613
			c-2.037,0.455-4.313-0.241-6.207,0.666c-1.996,0.959-2.992,2.957-4.799,4.124c-2.247,1.456-5.281,1.896-6.982,3.942
			c-1.922,2.31-3.541,5.906-1.922,8.811c0.814,1.459,2.392,2.564,3.665,3.725c2.915,2.652,5.556,5.211,9.899,3.781
			c1.795-0.588,3.52-1.331,5.388-1.746c1.606-0.356,3.101-0.337,3.979-1.727c1.359-2.15,4.598-2.864,5.652-5.258
			c0.572-1.305,0.863-2.794,0.738-4.206c-0.139-1.601-0.637-3.178,0.605-4.524c1.84-1.984,4.867-4.465,7.801-4.988
			c2.692-0.48,3.545-0.475,5.425-2.246c1.624-1.532,3.729-1.763,5.81-2.706c3.811-1.729,8.43-1.23,11.64-3.96
			c2.18-1.854,3.787-4.151,5.948-6.005c2.02-1.724,4.763-2.423,7.209-3.603c2.641-1.28,5.063-2.518,8.026-3.26
			c3.122-0.783,7.046-1.352,8.714,1.974c1.341,2.673,0.723,6.621-0.172,9.253c-2.369,6.995-5.18,14.361-11.136,19.617
			c-2.106,1.869-2.962,4.185-3.594,6.734c-0.513,2.076-0.938,4.404,0.919,6.219c1.955,1.918,5.973-0.041,6.047,0.049
			c1.967-0.793,4.672-2.308,5.711-4.005c1.016-1.667,0.443-3.577,0.256-5.401c-0.508-5.025,4.945-11.174,6.365-11.424
			c1.412-0.249,1.162,1.841,0.919,3.096c-0.356,1.85,0.091,3.955-0.575,5.732c-0.775,2.053-1.746,3.975-2.424,6.067
			c-1.07,3.29-2.76,6.202-5.252,8.835c-1.252,1.322-1.161,2.58-1.453,4.248c-0.164,0.972-2.007,3.796,0.467,3.914
			c1.684,0.084,2.098-2.514,2.494-3.506c3.702,1.343,3.551-3.955,3.814-5.857c0.314-2.254,2.119-4.165,3.217-6.147
			c1.518-2.76,2.764-5.935,5.779-7.733c1.602-0.951,5.15-1.313,7.076-1.4c3.156-0.135,1.367,3.211,0.739,4.467
			c-1.108,2.225-2.741,3.078-5.253,3.997c-2.121,0.774-4.684,1.873-5.142,4.042c-0.478,2.242,1.972,5.686,4.982,4.813
			c2.106-0.608,2.582-3.27,3.218-4.852c1.377-3.425,6.189-8.824,8.041-8.42c1.851,0.404-0.279,6.4-0.307,9.527
			c-0.035,3.544-0.127,7.105-0.953,10.554c-1.178,4.968-3.685,9.453-6.774,13.659c-2.58,3.506-6.159,6.983-7.464,11.103
			c-2.166,6.85,8.003,9.539,12.984,5.502c6.214-5.039,2.713-15.415,3.994-22.069c0.872-4.554,3.156-8.641,5.42-12.721
			c1.201-2.18,2.388-4.364,3.479-6.592c1.548-3.17,2.568-6.185,4.774-9.072c0.568-0.746,1.797-1.313,2.209-2.108
			c0.407-0.794-0.32-1.908,0.579-2.505c0.737-0.496,1.868-0.068,2.452,0.496c1.127,1.1,1.127,2.629,2.764,3.468
			c1.59,0.813,4.701,0.862,6.322,0.345c0.791-0.254,1.518-0.933,2.123-1.415c0.939-0.763,0.973-0.708,2.082-1.175
			c2.057-0.863,3.578-2.15,5.348-3.346c1.679-1.134,3.181-2.629,5.236-3.283c3.805-1.206,7.484,3.592,10.217,5.33
			c2.78,1.768,5.458,3.311,7.686,5.635c2.011,2.094,4.078,4.291,5.445,6.737c1.471,2.634,2.684,4.557,5.309,6.511
			c2.566,1.904,4.934,3.941,7.202,6.113c2.693,2.577,3.111,4.575,2.591,7.814c-0.396,2.503,1,4.076,1.535,6.486
			c0.634,2.888,0.213,5.221,2.598,7.662c4.197,4.303,7.781,10.076,14.745,10.677c-0.149-0.172-0.231-0.494-0.429-0.697
			c7.859,0.058,7.4-5.66,7.275-11.109c-0.174-7.343-2.18-12.446-9.97-16.476c-7.302-3.775-11.302-9.481-15.097-15.906
			c-3.934-6.645-6.744-13.84-10.279-20.646c-1.308-2.519-2.988-6.281-0.518-8.506c3.021-2.721,8.582-1.222,12.318-2.709
			c1.18-0.471,5.602-2.354,6.352-0.726c1.15-1.539,6.664,1.205,7.941,1.761c5.256,2.298,13.686,6,19.475,3.884
			c0.068,0.134,0.038,0.233,0.125,0.357c1.189-0.137,1.27,0.34,2.24,0.423c3.219,0.271,6.131-1.825,4.639-4.741
			c-0.631-1.232-0.682-0.908-2.011-1.222c-1.977-0.467-4.567-0.278-6.255-1.495c-1.82-1.313-2.736-4.448-1.106-5.946
			c0.83-0.755,1.776-0.789,2.851-1.121c2.314-0.709,4.637-1.832,7.201-1.781c2.762,0.055,4.371,1.867,6.904,2.451
			c1.636,0.381,3.369,0.125,5.04,0.424c5.886,1.06,11.036,3.429,16.683,5.161c3.078,0.945,6.055,1.544,9.041,2.676
			c1.139,0.431,2.332,0.493,3.486,0.906c1.851,0.662,3.447,1.848,5.272,2.578c5.481,2.195,10.47,2.49,16.255,2.301
			C626.838,234.097,632.721,235.479,633.555,233.703z"/>
	</g>
	<g>
		<path fill="#007B38" d="M576.154,41.807c-62.445,10.816-105.186,98.136-122.773,141.478c2.197,3.324,5.857,5.84,11.714,5.42
			c13.864-24.486,37.044-61.698,60.241-82.328c33.396-29.729,59.781-29.537,59.781-29.537
			C598.963,52.069,576.154,41.807,576.154,41.807L576.154,41.807z"/>
	</g>
</g>
</svg>
